# xmcd
# Track frame offsets:
# 150
# 12005
# 25287
# 38430
# 49580
# 62750
# 75247
# 89832
# 104070
# 119977
#
# Disc length: 1792 seconds
# Revision: 0
# Processed by: cddbd v1.4PL0 Copyright (c) Steve Scherf et al.
# Submitted via: VisiTrax 2.9.5.181 - For more info visit www.synapsa.com
#
DISCID=7d06fe0a
DTITLE=Crystal Gayle - Crystal Gayle
DYEAR=1999
DGENRE=
TTITLE0=Don't It Make My Brown Eyes
TTITLE1=Why Have You Left The One You Left Me For
TTITLE2=Talking In Your Sleep
TTITLE3=You
TTITLE4=Wayward Wind
TTITLE5=This Is My Year For Mexico
TTITLE6=River Road
TTITLE7=We Should Be Together
TTITLE8=I'll Get Over You
TTITLE9=Cry Me A River
EXTD=
EXTT0=
EXTT1=
EXTT2=
EXTT3=
EXTT4=
EXTT5=
EXTT6=
EXTT7=
EXTT8=
EXTT9=
PLAYORDER=
